<?xml version="1.0" encoding="UTF-8" standalone="no"?>
<!-- Created with Inkscape (http://www.inkscape.org/) -->

<svg
   width="248.00279mm"
   height="198.08031mm"
   viewBox="0 0 248.00279 198.08031"
   version="1.1"
   id="svg1"
   xml:space="preserve"
   xmlns:inkscape="http://www.inkscape.org/namespaces/inkscape"
   xmlns:sodipodi="http://sodipodi.sourceforge.net/DTD/sodipodi-0.dtd"
   xmlns="http://www.w3.org/2000/svg"
   xmlns:svg="http://www.w3.org/2000/svg"><sodipodi:namedview
     id="namedview1"
     pagecolor="#ffffff"
     bordercolor="#000000"
     borderopacity="0.25"
     inkscape:showpageshadow="2"
     inkscape:pageopacity="0.0"
     inkscape:pagecheckerboard="0"
     inkscape:deskcolor="#d1d1d1"
     inkscape:document-units="mm" /><defs
     id="defs1" /><g
     inkscape:label="Capa 1"
     inkscape:groupmode="layer"
     id="layer1"
     transform="translate(11.359002,-45.587671)"><g
       id="g16"
       transform="translate(3.8223939,-3.8223889)"><path
         style="fill:#e1d8c7"
         d="m 102.55819,247.36862 c 1.4067,-0.067 3.70858,-0.067 5.11528,0 1.4067,0.067 0.25576,0.12175 -2.55764,0.12175 -2.8134,0 -3.96434,-0.0548 -2.55764,-0.12175 z m -7.231944,-0.33402 c 0.339549,-0.0887 0.895174,-0.0887 1.234722,0 0.339549,0.0887 0.06174,0.16133 -0.617361,0.16133 -0.679097,0 -0.95691,-0.0726 -0.617361,-0.16133 z m 18.344444,0 c 0.33955,-0.0887 0.89517,-0.0887 1.23472,0 0.33955,0.0887 0.0617,0.16133 -0.61736,0.16133 -0.6791,0 -0.95691,-0.0726 -0.61736,-0.16133 z m -20.615451,-0.35059 c 0.254661,-0.1019 0.558932,-0.0894 0.676157,0.0279 0.117225,0.11722 -0.09113,0.2006 -0.463021,0.18528 -0.410966,-0.0169 -0.494558,-0.10052 -0.213136,-0.21314 z m 23.614061,0.007 c 0.24254,-0.0979 0.63941,-0.0979 0.88195,0 0.24253,0.0979 0.0441,0.17794 -0.44098,0.17794 -0.48507,0 -0.6835,-0.0801 -0.44097,-0.17794 z m -26.083506,-0.36012 c 0.254662,-0.10191 0.558933,-0.0894 0.676158,0.0279 0.117225,0.11722 -0.09113,0.2006 -0.463021,0.18528 -0.410966,-0.0169 -0.494559,-0.10052 -0.213137,-0.21313 z m 28.575006,0 c 0.25466,-0.10191 0.55893,-0.0894 0.67615,0.0279 0.11723,0.11722 -0.0911,0.2006 -0.46302,0.18528 -0.41096,-0.0169 -0.49456,-0.10052 -0.21313,-0.21313 z m -32.808339,-0.70556 c 0.254661,-0.10191 0.558932,-0.0894 0.676157,0.0279 0.117226,0.11723 -0.09113,0.20061 -0.46302,0.18529 -0.410966,-0.0169 -0.494559,-0.10052 -0.213137,-0.21314 z m 37.041669,0 c 0.25466,-0.10191 0.55893,-0.0894 0.67616,0.0279 0.11722,0.11723 -0.0911,0.20061 -0.46302,0.18529 -0.41097,-0.0169 -0.49456,-0.10052 -0.21314,-0.21314 z m -40.569447,-0.70555 c 0.254662,-0.10191 0.558932,-0.0894 0.676158,0.0279 0.117225,0.11722 -0.09113,0.2006 -0.463021,0.18528 -0.410966,-0.0169 -0.494559,-0.10052 -0.213137,-0.21313 z m 44.097227,0 c 0.25466,-0.10191 0.55893,-0.0894 0.67615,0.0279 0.11723,0.11722 -0.0911,0.2006 -0.46302,0.18528 -0.41096,-0.0169 -0.49456,-0.10052 -0.21313,-0.21313 z M 45.098607,227.25764 c -0.43881,-0.55952 -0.426332,-0.572 0.133193,-0.13319 0.339549,0.26629 0.617361,0.5441 0.617361,0.61736 0,0.29035 -0.289696,0.10347 -0.750554,-0.48417 z m 119.283893,0.48417 c 0,-0.0733 0.27781,-0.35107 0.61736,-0.61736 0.55952,-0.43881 0.572,-0.42633 0.13319,0.13319 -0.46086,0.58764 -0.75055,0.77452 -0.75055,0.48417 z m -122.623801,-3.13 -0.672038,-0.79375 0.79375,0.67203 c 0.745929,0.63155 0.954349,0.91547 0.672038,0.91547 -0.06694,0 -0.42413,-0.35719 -0.79375,-0.79375 z M 168.08666,224.7 c 0.35119,-0.38805 0.7179,-0.70555 0.81491,-0.70555 0.097,0 -0.11094,0.3175 -0.46213,0.70555 -0.35118,0.38806 -0.71789,0.70556 -0.81491,0.70556 -0.097,0 0.11095,-0.3175 0.46213,-0.70556 z m -128.797406,-2.20486 -0.672037,-0.79375 0.79375,0.67204 c 0.436562,0.36962 0.79375,0.72681 0.79375,0.79375 0,0.28231 -0.283914,0.0739 -0.915463,-0.67204 z m 131.266856,0.0882 c 0.35118,-0.38806 0.71789,-0.70556 0.81491,-0.70556 0.097,0 -0.11095,0.3175 -0.46213,0.70556 -0.35119,0.38805 -0.7179,0.70555 -0.81491,0.70555 -0.097,0 0.11094,-0.3175 0.46213,-0.70555 z m -135.66976,-4.14514 -0.855244,-0.97014 0.970138,0.85524 c 0.906741,0.79936 1.131919,1.08504 0.855245,1.08504 -0.06319,0 -0.499755,-0.43657 -0.970139,-0.97014 z m 140.07948,0.0882 c 0.4557,-0.48507 0.90792,-0.88194 1.00493,-0.88194 0.097,0 -0.19645,0.39687 -0.65215,0.88194 -0.4557,0.48507 -0.90792,0.88195 -1.00493,0.88195 -0.097,0 0.19645,-0.39688 0.65215,-0.88195 z m -144.496021,-4.85069 -0.672037,-0.79375 0.79375,0.67203 c 0.745929,0.63155 0.954349,0.91547 0.672037,0.91547 -0.06694,0 -0.424129,-0.35719 -0.79375,-0.79375 z m 148.905741,0.0882 c 0.35119,-0.38806 0.7179,-0.70556 0.81491,-0.70556 0.097,0 -0.11094,0.3175 -0.46213,0.70556 -0.35118,0.38806 -0.71789,0.70556 -0.81491,0.70556 -0.097,0 0.11095,-0.3175 0.46213,-0.70556 z M 28.518051,211.38264 c -0.43881,-0.55952 -0.426332,-0.572 0.133193,-0.13319 0.587639,0.46086 0.774516,0.75055 0.484168,0.75055 -0.07326,0 -0.351068,-0.27781 -0.617361,-0.61736 z m 152.444999,0.48417 c 0,-0.0733 0.27782,-0.35107 0.61736,-0.61736 0.55953,-0.43881 0.57201,-0.42633 0.1332,0.13319 -0.46086,0.58764 -0.75056,0.77452 -0.75056,0.48417 z M 27.10694,209.61875 c -0.43881,-0.55952 -0.426332,-0.572 0.133193,-0.13319 0.339549,0.26629 0.617361,0.5441 0.617361,0.61736 0,0.29035 -0.289696,0.10347 -0.750554,-0.48417 z m 155.26722,0.48417 c 0,-0.0733 0.27782,-0.35107 0.61737,-0.61736 0.55952,-0.43881 0.572,-0.42633 0.13319,0.13319 -0.46086,0.58764 -0.75056,0.77452 -0.75056,0.48417 z M -14.564035,192.92174 c -0.580109,-0.33788 -0.617361,-2.12483 -0.617361,-29.61447 v -29.25489 l 0.881945,-0.57788 c 0.485069,-0.31783 0.881944,-0.79774 0.881944,-1.06646 0,-0.39437 1.011656,-0.4886 5.2457875,-0.4886 h 5.2457872 l 0.1808984,1.60493 c 0.099494,0.88271 0.2735582,1.69759 0.3868091,1.81084 0.1132508,0.11325 0.799311,-0.3151 1.5245781,-0.9519 0.72526711,-0.63679 2.1990364,-1.57073 3.2750428,-2.07542 1.7518682,-0.82169 2.3804629,-0.91761 6.0133199,-0.91761 3.834812,0 4.187815,0.062 6.447108,1.13216 4.250107,2.01318 7.131249,5.81271 8.78115,11.58022 0.696706,2.43546 0.804966,3.6324 0.812527,8.98345 0.0076,5.41235 -0.09147,6.52009 -0.803804,8.98345 -1.084716,3.7511 -2.624351,6.54424 -4.858881,8.81475 -5.230106,5.31434 -13.7320771,5.82312 -19.63851686,1.17521 -1.28217874,-1.00897 -1.55920914,-0.94966 -1.10408134,0.23638 0.3443262,0.8973 2.9690544,2.53416 5.0585732,3.15468 1.0484135,0.31135 3.0680181,0.56609 4.4880102,0.56609 1.4199921,0 2.5818038,0.14576 2.5818038,0.32392 0,0.17816 0.104778,0.59697 0.23284,0.9307 0.213449,0.55624 -0.07552,0.59306 -3.4695976,0.44211 -3.7592664,-0.16719 -4.017072,-0.24531 -8.8458816,-2.68044 -0.1455209,-0.0734 -0.2645834,3.33367 -0.2645834,7.57122 0,7.56552 -0.2490534,9.83826 -1.1400822,10.40381 -0.652134,0.41392 -10.5665702,0.33822 -11.2953352,-0.0863 z m 10.3187507,-1.73563 c 0,-0.21709 -1.7638889,-0.35278 -4.5861112,-0.35278 -2.8222225,0 -4.5861115,0.13569 -4.5861115,0.35278 0,0.2171 1.763889,0.35278 4.5861115,0.35278 2.8222223,0 4.5861112,-0.13568 4.5861112,-0.35278 z M 6.4262438,165.79093 c 0.6848372,-0.003 0.9717275,-0.18637 0.9755409,-0.62218 0.00417,-0.47653 0.073965,-0.50918 0.3059638,-0.14312 0.4570758,0.72119 2.3229895,-0.37725 3.3691345,-1.98338 1.519987,-2.33361 2.107496,-5.1091 2.107496,-9.95614 0,-6.60698 -1.438996,-10.31659 -4.5801152,-11.80715 -1.6328731,-0.77485 -5.6169363,-0.84021 -7.0013064,-0.11487 -0.87745263,0.45975 -0.75488255,0.49193 1.8087334,0.47495 l 2.7499696,-0.0182 0.060693,1.41111 c 0.033381,0.77612 -0.017947,1.1333 -0.1140616,0.79375 -0.2456864,-0.86794 -3.6714026,-0.83281 -5.63252704,0.0578 -2.56802026,1.16618 -2.60438206,1.30735 -2.60438206,10.11092 0,7.51529 0.029687,7.85089 0.7949488,8.98646 1.24073549,1.84113 4.2878336,3.32259 6.0842181,2.95807 0.3880555,-0.0787 1.1421181,-0.14533 1.6756945,-0.14798 z m 0.645212,-2.68005 c 0.016928,-0.41097 0.1005206,-0.49456 0.2131365,-0.21314 0.1019072,0.25466 0.089374,0.55894 -0.027851,0.67616 -0.1172252,0.11723 -0.2006037,-0.0911 -0.1852855,-0.46302 z m -0.3249269,-2.61644 c 0,-0.48506 0.080071,-0.6835 0.1779361,-0.44097 0.097865,0.24254 0.097865,0.63941 0,0.88195 -0.097865,0.24253 -0.1779361,0.0441 -0.1779361,-0.44098 z m -0.3266342,-3.175 c 0,-0.67909 0.0726,-0.95691 0.1613333,-0.61736 0.088733,0.33955 0.088733,0.89518 0,1.23473 -0.088733,0.33954 -0.1613333,0.0617 -0.1613333,-0.61737 z m -0.2999453,-8.64305 c 6.976e-4,-2.32833 0.057792,-3.23493 0.1268766,-2.01465 0.069085,1.22028 0.068514,3.12528 -0.00127,4.23333 -0.069782,1.10806 -0.1263058,0.10965 -0.1256083,-2.21868 z M 206.4073,175.04653 c -0.44874,-0.37464 -1.35502,-2.42611 -2.30511,-5.21785 -1.46773,-4.31277 -1.542,-4.70991 -1.18765,-6.35 l 0.37798,-1.74951 1.87252,5.58959 c 1.02988,3.07427 2.05769,5.81271 2.28402,6.08541 0.31272,0.37682 1.45459,0.49583 4.7572,0.49583 5.98571,0 6.09342,-0.65675 0.12849,-0.78341 l -4.6405,-0.0985 -6.80228,-20.15601 c -3.74125,-11.0858 -6.91089,-20.65049 -7.04363,-21.25486 l -0.24135,-1.09886 h 5.83901 5.83901 l 0.52883,1.85209 c 0.29086,1.01864 1.88821,6.76552 3.54968,12.77084 2.68277,9.69681 3.34953,11.88605 3.34953,10.99786 0,-0.13727 1.43024,-5.42757 3.1783,-11.75623 2.98882,-10.82063 3.25068,-11.57693 4.39224,-12.6856 l 1.21394,-1.17896 h 5.66193 c 3.11406,0 5.66193,0.0823 5.66193,0.18288 0,1.75509 -13.98064,43.13202 -14.9274,44.17893 -0.68029,0.75226 -0.97995,0.79375 -5.73251,0.79375 -4.25902,0 -5.12614,-0.093 -5.75418,-0.61736 z M 31.73805,153.2625 v -21.34306 h 5.245508 5.245509 l 0.218665,1.32292 c 0.120265,0.7276 0.220411,1.7812 0.222547,2.34133 l 0.0039,1.01841 1.727427,-1.6158 c 2.656471,-2.48482 6.205695,-3.76404 10.443407,-3.76404 4.750178,0 8.07763,1.50777 10.237745,4.63902 l 1.065523,1.54456 1.770377,-1.81755 c 3.201622,-3.28693 6.916417,-4.57821 12.352684,-4.29386 2.617323,0.1369 3.68322,0.36467 5.216021,1.1146 2.135128,1.04462 4.039288,2.94907 5.175566,5.17636 1.566701,3.07099 1.740281,5.19391 1.746793,21.36359 l 0.0061,15.21148 -1.322917,0.21867 c -0.727604,0.12026 -3.267604,0.22041 -5.644444,0.22254 l -4.321528,0.004 -0.0084,-14.19931 c -0.0046,-7.80962 -0.152841,-14.82202 -0.32936,-15.58311 -0.698539,-3.01189 -2.490501,-4.26289 -6.034307,-4.21265 -2.488424,0.0353 -3.466244,0.3939 -5.036495,1.8472 -2.028476,1.8774 -1.996978,1.60504 -1.996978,17.26752 v 14.43525 l -1.322917,0.21867 c -0.727604,0.12026 -3.267604,0.22041 -5.644444,0.22254 l -4.321528,0.004 -0.01536,-14.02292 c -0.0084,-7.71261 -0.149024,-14.71478 -0.312386,-15.56038 -0.601352,-3.11275 -2.34886,-4.38713 -6.015882,-4.38713 -2.74616,0 -4.468886,0.70278 -6.001444,2.44827 l -1.06048,1.20782 v 14.93462 14.93462 l -1.322917,0.21867 c -0.727604,0.12026 -3.267604,0.22041 -5.644444,0.22254 l -4.321528,0.004 z m 137.24131,20.12021 c -7.41493,-1.40657 -13.46514,-7.04952 -15.43552,-14.39651 -0.81848,-3.05189 -0.80805,-10.54165 0.019,-13.6612 3.06371,-11.55558 13.15415,-17.69327 24.37142,-14.82438 3.60251,0.92137 5.79415,2.16032 8.10258,4.58048 3.81603,4.0007 5.49705,9.47025 5.50661,17.91682 l 0.003,2.55764 h -13.40556 -13.40555 l 0.008,0.97013 c 0.0185,2.32081 2.51725,5.71455 5.11512,6.94732 0.65589,0.31124 2.07027,0.74217 3.14306,0.95762 3.46723,0.69632 8.20645,-0.72696 10.60769,-3.18569 0.58208,-0.59602 1.16247,-1.08808 1.28976,-1.09347 0.12728,-0.005 1.47327,1.35807 2.99109,3.02992 l 2.75968,3.03973 -2.32616,2.20381 c -3.6361,3.44486 -7.53064,4.96909 -13.5097,5.28735 -2.00088,0.1065 -4.18609,-0.0169 -5.8342,-0.32957 z m 10.88367,-25.90781 c 0.51011,-0.32308 0.38294,-1.83956 -0.34843,-4.1551 -0.53329,-1.68837 -2.74035,-3.49557 -4.81146,-3.93975 -4.51601,-0.96851 -8.35883,1.40202 -9.61753,5.93277 -0.73417,2.64272 -1.18587,2.48224 6.9698,2.47622 4.02608,-0.003 7.53951,-0.14433 7.80762,-0.31414 z m 22.29454,19.86931 c 0.0169,-0.41096 0.10052,-0.49456 0.21314,-0.21313 0.10191,0.25466 0.0894,0.55893 -0.0279,0.67615 -0.11723,0.11723 -0.20061,-0.0911 -0.18529,-0.46302 z M 7.7770113,129.59699 c 0.016928,-0.41097 0.1005206,-0.49456 0.2131366,-0.21314 0.1019072,0.25467 0.089374,0.55894 -0.027851,0.67616 -0.1172251,0.11723 -0.2006036,-0.0911 -0.1852856,-0.46302 z m 194.3805587,0 c 0.0169,-0.41097 0.10052,-0.49456 0.21314,-0.21314 0.10191,0.25467 0.0894,0.55894 -0.0279,0.67616 -0.11723,0.11723 -0.20061,-0.0911 -0.18529,-0.46302 z M 25.38805,89.452917 c 0,-0.07326 0.277812,-0.351069 0.617361,-0.617362 0.559525,-0.438809 0.572003,-0.426332 0.133193,0.133194 -0.460858,0.587638 -0.750554,0.774516 -0.750554,0.484168 z m 158.705,-0.484168 c -0.43881,-0.559526 -0.42633,-0.572003 0.1332,-0.133194 0.33955,0.266293 0.61736,0.544105 0.61736,0.617362 0,0.290348 -0.2897,0.10347 -0.75056,-0.484168 z M 26.799161,87.689028 c 0,-0.07326 0.277812,-0.351069 0.617361,-0.617361 0.559525,-0.43881 0.572003,-0.426333 0.133193,0.133193 -0.460858,0.587639 -0.750554,0.774516 -0.750554,0.484168 z M 182.68194,87.20486 c -0.43881,-0.559526 -0.42633,-0.572003 0.1332,-0.133193 0.58764,0.460858 0.77451,0.750554 0.48416,0.750554 -0.0733,0 -0.35106,-0.277813 -0.61736,-0.617361 z M 28.210272,85.925139 c 0,-0.07326 0.277813,-0.351069 0.617361,-0.617361 0.559525,-0.43881 0.572003,-0.426332 0.133193,0.133193 -0.460858,0.587639 -0.750554,0.774516 -0.750554,0.484168 z M 181.27083,85.440971 c -0.43881,-0.559525 -0.42633,-0.572003 0.1332,-0.133193 0.58763,0.460858 0.77451,0.750554 0.48416,0.750554 -0.0733,0 -0.35106,-0.277813 -0.61736,-0.617361 z M 30.679717,83.059721 c 0.455699,-0.48507 0.907918,-0.881945 1.004932,-0.881945 0.09701,0 -0.196456,0.396875 -0.652155,0.881945 -0.455699,0.485069 -0.907918,0.881944 -1.004932,0.881944 -0.09701,0 0.196455,-0.396875 0.652155,-0.881944 z m 148.492743,-0.08819 -0.85524,-0.970139 0.97014,0.855244 c 0.53358,0.470385 0.97014,0.906947 0.97014,0.970139 0,0.276675 -0.28568,0.0515 -1.08504,-0.855244 z M 34.91305,78.473609 c 0.455699,-0.485069 0.907919,-0.881944 1.004933,-0.881944 0.09701,0 -0.196456,0.396875 -0.652155,0.881944 -0.455699,0.48507 -0.907919,0.881945 -1.004933,0.881945 -0.09701,0 0.196456,-0.396875 0.652155,-0.881945 z m 140.02608,-0.08819 -0.85524,-0.970139 0.97014,0.855244 c 0.53357,0.470384 0.97013,0.906947 0.97013,0.970139 0,0.276675 -0.28567,0.0515 -1.08503,-0.855244 z M 39.322772,74.416665 c 0.351186,-0.388056 0.717894,-0.705556 0.814908,-0.705556 0.09701,0 -0.110944,0.3175 -0.46213,0.705556 -0.351185,0.388055 -0.717894,0.705555 -0.814908,0.705555 -0.09701,0 0.110945,-0.3175 0.46213,-0.705555 z m 131.199818,-0.08819 -0.67204,-0.79375 0.79375,0.672038 c 0.43657,0.36962 0.79375,0.726808 0.79375,0.79375 0,0.282311 -0.28391,0.07389 -0.91546,-0.672038 z M 41.792217,72.299998 c 0.351185,-0.388055 0.717894,-0.705555 0.814908,-0.705555 0.09701,0 -0.110945,0.3175 -0.46213,0.705555 -0.351186,0.388056 -0.717894,0.705556 -0.814908,0.705556 -0.09701,0 0.110944,-0.3175 0.46213,-0.705556 z m 126.260933,-0.08819 -0.67204,-0.79375 0.79375,0.672037 c 0.43656,0.369621 0.79375,0.726808 0.79375,0.79375 0,0.282312 -0.28391,0.07389 -0.91546,-0.672037 z M 43.379717,71.108472 c 0,-0.07326 0.277812,-0.351069 0.617361,-0.617361 0.559525,-0.43881 0.572003,-0.426333 0.133193,0.133193 -0.460858,0.587639 -0.750554,0.774516 -0.750554,0.484168 z M 166.10139,70.624304 c -0.43881,-0.559526 -0.42633,-0.572003 0.13319,-0.133193 0.33955,0.266292 0.61736,0.544104 0.61736,0.617361 0,0.290348 -0.28969,0.103471 -0.75055,-0.484168 z M 45.143606,69.697361 c 0,-0.07326 0.277812,-0.351069 0.617361,-0.617362 0.559525,-0.43881 0.572003,-0.426332 0.133193,0.133194 -0.460858,0.587638 -0.750554,0.774516 -0.750554,0.484168 z M 164.3375,69.213193 c -0.43881,-0.559526 -0.42633,-0.572004 0.13319,-0.133194 0.33955,0.266293 0.61736,0.544105 0.61736,0.617362 0,0.290348 -0.28969,0.10347 -0.75055,-0.484168 z M 81.413572,52.303455 c 0.254661,-0.101907 0.558932,-0.08937 0.676157,0.02785 0.117225,0.117225 -0.09113,0.200603 -0.46302,0.185285 -0.410966,-0.01693 -0.494559,-0.10052 -0.213137,-0.213135 z m 46.919448,0 c 0.25466,-0.101907 0.55893,-0.08937 0.67615,0.02785 0.11723,0.117225 -0.0911,0.200603 -0.46302,0.185285 -0.41096,-0.01693 -0.49455,-0.10052 -0.21313,-0.213135 z M 88.11635,50.892344 c 0.254661,-0.101908 0.558932,-0.08938 0.676157,0.02785 0.117225,0.117226 -0.09113,0.200604 -0.463021,0.185286 -0.410966,-0.01693 -0.494558,-0.10052 -0.213136,-0.213136 z m 33.51389,0 c 0.25466,-0.101908 0.55893,-0.08938 0.67616,0.02785 0.11722,0.117226 -0.0911,0.200604 -0.46302,0.185286 -0.41097,-0.01693 -0.49456,-0.10052 -0.21314,-0.213136 z M 89.85819,50.546915 c 0.242535,-0.09786 0.63941,-0.09786 0.881945,0 0.242534,0.09786 0.0441,0.177936 -0.440973,0.177936 -0.485069,0 -0.683507,-0.08007 -0.440972,-0.177936 z m 29.63333,0 c 0.24254,-0.09786 0.63941,-0.09786 0.88195,0 0.24253,0.09786 0.0441,0.177936 -0.44097,0.177936 -0.48507,0 -0.68351,-0.08007 -0.44098,-0.177936 z M 92.702461,50.186788 c 0.254662,-0.101907 0.558932,-0.08937 0.676158,0.02785 0.117225,0.117225 -0.09113,0.200604 -0.463021,0.185286 -0.410966,-0.01693 -0.494559,-0.100521 -0.213137,-0.213137 z m 24.341669,0 c 0.25466,-0.101907 0.55893,-0.08937 0.67616,0.02785 0.11722,0.117225 -0.0911,0.200604 -0.46303,0.185286 -0.41096,-0.01693 -0.49455,-0.100521 -0.21313,-0.213137 z M 95.326246,49.831819 c 0.339549,-0.08873 0.895174,-0.08873 1.234722,0 0.339549,0.08873 0.06174,0.161333 -0.617361,0.161333 -0.679097,0 -0.95691,-0.0726 -0.617361,-0.161333 z m 18.344444,0 c 0.33955,-0.08873 0.89517,-0.08873 1.23472,0 0.33955,0.08873 0.0617,0.161333 -0.61736,0.161333 -0.6791,0 -0.95691,-0.0726 -0.61736,-0.161333 z m -11.1125,-0.371539 c 1.4067,-0.06696 3.70858,-0.06696 5.11528,0 1.4067,0.06696 0.25576,0.121748 -2.55764,0.121748 -2.8134,0 -3.96434,-0.05479 -2.55764,-0.121748 z"
         id="path19" /><path
         style="fill:#1f50fa"
         d="m 98.852246,140.15446 0.08997,-33.81141 8.819444,-0.10715 c 17.40255,-0.21144 23.09087,0.85674 30.11304,5.65476 5.10873,3.49063 9.44119,10.03455 11.40737,17.23014 0.74426,2.72371 0.81151,3.67536 0.79611,11.26531 -0.0163,8.02723 -0.0477,8.39102 -0.99125,11.46528 -3.36237,10.95568 -10.53437,18.10498 -20.96158,20.8952 -3.33621,0.89273 -3.78622,0.92206 -16.39671,1.0686 l -12.966368,0.15068 z m 23.875924,22.11486 c 4.64669,-0.67164 9.24615,-4.06178 11.14151,-8.21214 1.61568,-3.53791 2.01887,-5.76993 2.19928,-12.17516 0.20233,-7.18356 -0.2198,-10.71469 -1.76031,-14.72508 -0.90861,-2.36537 -1.46038,-3.19612 -3.4086,-5.13206 -3.42004,-3.39847 -4.98054,-3.92337 -12.29047,-4.13412 l -5.73264,-0.16527 v 22.44281 22.44281 l 3.79236,-0.007 c 2.0858,-0.004 4.81229,-0.15452 6.05887,-0.3347 z"
         id="path18" /><path
         style="fill:#1c273b"
         d="M 96.119996,247.04254 C 82.558801,245.3829 72.289408,242.47966 61.900551,237.36844 53.165497,233.07088 47.25883,229.15202 39.844443,222.735 27.124768,211.72634 17.159883,196.84245 11.579044,180.51682 l -1.536828,-4.49569 -2.4936093,-0.002 c -4.8037312,-0.004 -9.6772243,-2.34447 -9.6772243,-4.64684 0,-0.19446 0.5953126,0.1149 1.32291674,0.68746 5.90643976,4.64791 14.40841086,4.13913 19.63851686,-1.17521 2.23453,-2.27051 3.774165,-5.06365 4.858881,-8.81475 0.712336,-2.46336 0.811452,-3.5711 0.803804,-8.98345 -0.0076,-5.35105 -0.115821,-6.54799 -0.812527,-8.98345 -2.215013,-7.74296 -6.939668,-12.23707 -13.437526,-12.78182 l -2.5088631,-0.21034 0.2240394,-1.27122 c 0.5756887,-3.26652 2.7085787,-10.90321 4.2008197,-15.0408 11.0725,-30.701089 36.933095,-54.101988 68.612718,-62.086711 9.690455,-2.44244 12.772227,-2.796489 24.341668,-2.796489 11.56944,0 14.65121,0.354049 24.34167,2.796489 36.21015,9.126625 64.32196,38.182447 72.28247,74.709761 l 0.67271,3.0868 h -4.40284 -4.40285 l 0.24135,1.09886 c 0.13274,0.60437 3.30238,10.16906 7.04363,21.25486 l 6.80228,20.15601 4.6405,0.0985 c 5.96493,0.12666 5.85722,0.78341 -0.12849,0.78341 -3.30261,0 -4.44448,-0.11901 -4.7572,-0.49583 -0.22633,-0.2727 -1.25508,-3.01114 -2.28612,-6.08541 l -1.87462,-5.58959 -0.41279,2.11666 c -3.24432,16.63584 -7.64717,27.7767 -15.75414,39.86389 -14.52795,21.66067 -37.42466,36.85742 -62.95556,41.78418 -7.14413,1.37862 -11.73503,1.78597 -19.50904,1.73102 -4.11315,-0.0291 -7.954711,-0.11114 -8.536794,-0.18238 z m -54.415974,-72.66341 1.322917,-0.21867 v -14.93462 -14.93462 l 1.06048,-1.20782 c 1.532558,-1.74549 3.255284,-2.44827 6.001444,-2.44827 3.667022,0 5.41453,1.27438 6.015882,4.38713 0.163362,0.8456 0.303936,7.84777 0.312386,15.56038 l 0.01536,14.02292 4.321528,-0.004 c 2.37684,-0.002 4.91684,-0.10228 5.644444,-0.22254 l 1.322917,-0.21867 V 159.7251 c 0,-15.66248 -0.0315,-15.39012 1.996978,-17.26752 1.570251,-1.4533 2.548071,-1.81193 5.036495,-1.8472 3.543806,-0.0502 5.335768,1.20076 6.034307,4.21265 0.176519,0.76109 0.324731,7.77349 0.32936,15.58311 l 0.0084,14.19931 4.321528,-0.004 c 2.37684,-0.002 4.91684,-0.10228 5.644444,-0.22254 l 1.322917,-0.21867 -0.0061,-15.21148 c -0.0065,-16.16968 -0.180092,-18.2926 -1.746793,-21.36359 -1.136278,-2.22729 -3.040438,-4.13174 -5.175566,-5.17636 -1.532801,-0.74993 -2.598698,-0.9777 -5.216021,-1.1146 -5.436267,-0.28435 -9.151062,1.00693 -12.352684,4.29386 l -1.770377,1.81755 -1.065523,-1.54456 c -2.160115,-3.13125 -5.487567,-4.63902 -10.237745,-4.63902 -4.237712,0 -7.786936,1.27922 -10.443407,3.76404 l -1.727427,1.6158 -0.0039,-1.01841 c -0.0021,-0.56013 -0.102282,-1.61373 -0.222547,-2.34133 l -0.218665,-1.32292 H 36.983558 31.73805 v 21.34306 21.34306 l 4.321528,-0.004 c 2.37684,-0.002 4.91684,-0.10228 5.644444,-0.22254 z m 86.421328,-1.63254 c 10.42721,-2.79022 17.59921,-9.93952 20.96158,-20.8952 0.94351,-3.07426 0.97497,-3.43805 0.99125,-11.46528 0.0154,-7.58995 -0.0519,-8.5416 -0.79611,-11.26531 -2.97605,-10.8914 -10.02089,-18.35406 -20.30292,-21.50704 -3.37191,-1.034 -10.64507,-1.50631 -21.21749,-1.37786 l -8.819442,0.10715 -0.08997,33.81141 -0.08997,33.81141 12.966362,-0.15068 c 12.61049,-0.14654 13.0605,-0.17587 16.39671,-1.0686 z M 112.87694,140.1683 v -22.44281 l 5.73264,0.16527 c 7.30993,0.21075 8.87043,0.73565 12.29047,4.13412 4.14176,4.11565 5.4687,9.21327 5.16891,19.85714 -0.24024,8.52941 -1.38496,12.27239 -4.88512,15.9733 -3.36598,3.55903 -6.95904,4.73457 -14.51454,4.7487 l -3.79236,0.007 z m 67.16762,32.84445 c 3.30917,-0.86193 5.80709,-2.2462 8.2787,-4.58782 l 2.32616,-2.20381 -2.75968,-3.03973 c -1.51782,-1.67185 -2.86381,-3.03531 -2.99109,-3.02992 -0.12729,0.005 -0.70768,0.49745 -1.28976,1.09347 -2.40124,2.45873 -7.14046,3.88201 -10.60769,3.18569 -1.07279,-0.21545 -2.48717,-0.64638 -3.14306,-0.95762 -2.59787,-1.23277 -5.09658,-4.62651 -5.11512,-6.94732 l -0.008,-0.97013 h 13.40555 13.40556 l -0.003,-2.55764 c -0.01,-8.44657 -1.69058,-13.91612 -5.50661,-17.91682 -2.30843,-2.42016 -4.50007,-3.65911 -8.10258,-4.58048 -11.21727,-2.86889 -21.30771,3.2688 -24.37142,14.82438 -0.82709,3.11955 -0.83752,10.60931 -0.019,13.6612 1.97038,7.34699 8.02059,12.98994 15.43552,14.39651 3.08115,0.58447 8.03705,0.41878 11.0652,-0.36996 z m -15.30732,-25.83567 c 0.008,-2.38915 2.169,-6.09733 4.12497,-7.07698 3.05472,-1.52998 6.67628,-1.1752 8.94726,0.8765 1.34924,1.21895 1.84761,2.26489 2.30048,4.828 0.17377,0.98353 0.10522,1.44727 -0.24692,1.6703 -0.26811,0.16981 -3.78154,0.31117 -7.80762,0.31414 -6.73917,0.005 -7.31998,-0.0436 -7.31817,-0.61196 z m -178.154747,44.00903 c 0,-0.21709 1.763889,-0.35278 4.5861115,-0.35278 2.8222223,0 4.5861112,0.13569 4.5861112,0.35278 0,0.2171 -1.7638889,0.35278 -4.5861112,0.35278 -2.8222225,0 -4.5861115,-0.13568 -4.5861115,-0.35278 z M 7.6146893,164.81597 C 7.0180751,162.79239 6.5758895,157.50723 6.3824241,150.0875 l -0.2207637,-8.46667 -2.7499696,0.0182 c -2.56361595,0.017 -2.68618603,-0.0152 -1.8087334,-0.47495 1.3843701,-0.72534 5.3684333,-0.65998 7.0013064,0.11487 3.1411192,1.49056 4.5801152,5.20017 4.5801152,11.80715 0,6.27747 -1.25307,10.11705 -3.8107569,11.67669 -1.3509911,0.82382 -1.530127,0.82923 -1.7589328,0.0532 z"
         id="path17" /></g></g></svg>
